<mxfile host="app.diagrams.net" modified="2022-04-06T01:57:45.773Z" agent="5.0 (Macintosh; Intel Mac OS X 10_15_7) AppleWebKit/537.36 (KHTML, like Gecko) Chrome/100.0.4896.60 Safari/537.36" etag="NgLcATb7myh1qvhsXdfB" version="17.4.0" type="github">
  <diagram id="6a731a19-8d31-9384-78a2-239565b7b9f0" name="Page-1">
    <mxGraphModel dx="2194" dy="2049" grid="1" gridSize="10" guides="1" tooltips="1" connect="1" arrows="1" fold="1" page="1" pageScale="1" pageWidth="1169" pageHeight="827" background="none" math="0" shadow="0">
      <root>
        <mxCell id="0" />
        <mxCell id="1" parent="0" />
        <mxCell id="1745" value="" style="edgeStyle=none;rounded=0;jumpStyle=none;html=1;shadow=0;labelBackgroundColor=none;startArrow=none;startFill=0;endArrow=classic;endFill=1;jettySize=auto;orthogonalLoop=1;strokeColor=#2F5B7C;strokeWidth=3;fontFamily=Helvetica;fontSize=16;fontColor=#23445D;spacing=5;" parent="1" source="NeZcTKor84PLYwiWS2ps-1779" edge="1">
          <mxGeometry relative="1" as="geometry">
            <mxPoint x="212" y="297.46202452841953" as="sourcePoint" />
            <mxPoint x="569.1351351351354" y="262.5" as="targetPoint" />
          </mxGeometry>
        </mxCell>
        <mxCell id="1746" value="" style="edgeStyle=none;rounded=0;jumpStyle=none;html=1;shadow=0;labelBackgroundColor=none;startArrow=none;startFill=0;endArrow=classic;endFill=1;jettySize=auto;orthogonalLoop=1;strokeColor=#2F5B7C;strokeWidth=3;fontFamily=Helvetica;fontSize=16;fontColor=#23445D;spacing=5;exitX=1;exitY=0.25;exitDx=0;exitDy=0;" parent="1" source="NeZcTKor84PLYwiWS2ps-1779" target="1771" edge="1">
          <mxGeometry relative="1" as="geometry">
            <mxPoint x="192.32394366197195" y="268" as="sourcePoint" />
          </mxGeometry>
        </mxCell>
        <mxCell id="1747" value="" style="edgeStyle=none;rounded=0;jumpStyle=none;html=1;shadow=0;labelBackgroundColor=none;startArrow=none;startFill=0;endArrow=classic;endFill=1;jettySize=auto;orthogonalLoop=1;strokeColor=#2F5B7C;strokeWidth=3;fontFamily=Helvetica;fontSize=16;fontColor=#23445D;spacing=5;" parent="1" source="NeZcTKor84PLYwiWS2ps-1779" edge="1">
          <mxGeometry relative="1" as="geometry">
            <mxPoint x="195.96015180265704" y="342" as="sourcePoint" />
            <mxPoint x="569.1351351351354" y="568.5" as="targetPoint" />
          </mxGeometry>
        </mxCell>
        <mxCell id="1771" value="Communication" style="rounded=1;whiteSpace=wrap;html=1;shadow=0;labelBackgroundColor=none;strokeColor=none;strokeWidth=3;fillColor=#12aab5;fontFamily=Helvetica;fontSize=14;fontColor=#FFFFFF;align=center;spacing=5;fontStyle=1;arcSize=7;perimeterSpacing=2;" parent="1" vertex="1">
          <mxGeometry x="280" y="132.9999999999999" width="150" height="60" as="geometry" />
        </mxCell>
        <mxCell id="1774" value="Media" style="rounded=1;whiteSpace=wrap;html=1;shadow=0;labelBackgroundColor=none;strokeColor=none;strokeWidth=3;fillColor=#61c6ce;fontFamily=Helvetica;fontSize=14;fontColor=#FFFFFF;align=center;spacing=5;fontStyle=0;arcSize=7;perimeterSpacing=2;" parent="1" vertex="1">
          <mxGeometry x="490" y="140" width="150" height="60" as="geometry" />
        </mxCell>
        <mxCell id="1775" value="" style="edgeStyle=none;rounded=1;jumpStyle=none;html=1;shadow=0;labelBackgroundColor=none;startArrow=none;startFill=0;jettySize=auto;orthogonalLoop=1;strokeColor=#12AAB5;strokeWidth=3;fontFamily=Helvetica;fontSize=14;fontColor=#FFFFFF;spacing=5;fontStyle=1;fillColor=#b0e3e6;" parent="1" source="1771" target="1774" edge="1">
          <mxGeometry relative="1" as="geometry" />
        </mxCell>
        <mxCell id="1776" value="Sponsoring" style="rounded=1;whiteSpace=wrap;html=1;shadow=0;labelBackgroundColor=none;strokeColor=none;strokeWidth=3;fillColor=#61c6ce;fontFamily=Helvetica;fontSize=14;fontColor=#FFFFFF;align=center;spacing=5;fontStyle=0;arcSize=7;perimeterSpacing=2;" parent="1" vertex="1">
          <mxGeometry x="490" y="72" width="150" height="60" as="geometry" />
        </mxCell>
        <mxCell id="1777" value="" style="edgeStyle=none;rounded=1;jumpStyle=none;html=1;shadow=0;labelBackgroundColor=none;startArrow=none;startFill=0;jettySize=auto;orthogonalLoop=1;strokeColor=#12AAB5;strokeWidth=3;fontFamily=Helvetica;fontSize=14;fontColor=#FFFFFF;spacing=5;fontStyle=1;fillColor=#b0e3e6;" parent="1" source="1771" target="1776" edge="1">
          <mxGeometry relative="1" as="geometry" />
        </mxCell>
        <mxCell id="1778" value="PR" style="rounded=1;whiteSpace=wrap;html=1;shadow=0;labelBackgroundColor=none;strokeColor=none;strokeWidth=3;fillColor=#61c6ce;fontFamily=Helvetica;fontSize=14;fontColor=#FFFFFF;align=center;spacing=5;fontStyle=0;arcSize=7;perimeterSpacing=2;" parent="1" vertex="1">
          <mxGeometry x="490" y="-10" width="150" height="60" as="geometry" />
        </mxCell>
        <mxCell id="1779" value="" style="edgeStyle=none;rounded=1;jumpStyle=none;html=1;shadow=0;labelBackgroundColor=none;startArrow=none;startFill=0;jettySize=auto;orthogonalLoop=1;strokeColor=#12AAB5;strokeWidth=3;fontFamily=Helvetica;fontSize=14;fontColor=#FFFFFF;spacing=5;fontStyle=1;fillColor=#b0e3e6;" parent="1" source="1771" target="1778" edge="1">
          <mxGeometry relative="1" as="geometry" />
        </mxCell>
        <mxCell id="NeZcTKor84PLYwiWS2ps-1779" value="" style="shape=image;verticalLabelPosition=bottom;labelBackgroundColor=default;verticalAlign=top;aspect=fixed;imageAspect=0;image=data:image/png,iVBORw0KGgoAAAANSUhEUgAAAHAAAACKCAYAAABy6c40AAAAAXNSR0IArs4c6QAAAJBlWElmTU0AKgAAAAgABgEGAAMAAAABAAIAAAESAAMAAAABAAEAAAEaAAUAAAABAAAAVgEbAAUAAAABAAAAXgEoAAMAAAABAAIAAIdpAAQAAAABAAAAZgAAAAAAAACQAAAAAQAAAJAAAAABAAOgAQADAAAAAQABAACgAgAEAAAAAQAAAHCgAwAEAAAAAQAAAIoAAAAAhl5F/AAAAAlwSFlzAAAWJQAAFiUBSVIk8AAAAgtpVFh0WE1MOmNvbS5hZG9iZS54bXAAAAAAADx4OnhtcG1ldGEgeG1sbnM6eD0iYWRvYmU6bnM6bWV0YS8iIHg6eG1wdGs9IlhNUCBDb3JlIDYuMC4wIj4KICAgPHJkZjpSREYgeG1sbnM6cmRmPSJodHRwOi8vd3d3LnczLm9yZy8xOTk5LzAyLzIyLXJkZi1zeW50YXgtbnMjIj4KICAgICAgPHJkZjpEZXNjcmlwdGlvbiByZGY6YWJvdXQ9IiIKICAgICAgICAgICAgeG1sbnM6dGlmZj0iaHR0cDovL25zLmFkb2JlLmNvbS90aWZmLzEuMC8iPgogICAgICAgICA8dGlmZjpSZXNvbHV0aW9uVW5pdD4yPC90aWZmOlJlc29sdXRpb25Vbml0PgogICAgICAgICA8dGlmZjpPcmllbnRhdGlvbj4xPC90aWZmOk9yaWVudGF0aW9uPgogICAgICAgICA8dGlmZjpDb21wcmVzc2lvbj41PC90aWZmOkNvbXByZXNzaW9uPgogICAgICAgICA8dGlmZjpQaG90b21ldHJpY0ludGVycHJldGF0aW9uPjI8L3RpZmY6UGhvdG9tZXRyaWNJbnRlcnByZXRhdGlvbj4KICAgICAgPC9yZGY6RGVzY3JpcHRpb24+CiAgIDwvcmRmOlJERj4KPC94OnhtcG1ldGE+CtQK6igAADgsSURBVHgB7Z15kF33VefPfd39el/Um9aW1JJlSd4Vx9gxCV6InQQSkgzJhCUMAWYYCqhiqKkQYIA/hqopCqoGh1AhEEJBJkASEidgEhNsx7ETx5Gd2LLk3bK2brWkVrd635c7n+/vvvt0+777tlZvruJUv3733fu7v+V8f+f8zu/8Ns8gH9L3f9AbigM9nuftrHxDZTmW2flFs7l532YWfJuaXeTj2/Scb/OLvi3w4c+R55lV8C+VMktXelafTll9tWfVlSlLV5hVVhDgDUpvKABnAWpsatEGJxZsdHrRJgFsEuAEosCSHnFQ8C8KSVS9uDA8TPGpAri6NJ/qlDXVpKyjqcIaua7UwzcIuZxuZBU6PbdoA+MLdnEs+NZvgSWpEqMlUZKgSqpiBd8V3FOhdE/fiyAWgivJXOQzv8D9ebMZRHiO3z6SLPKQUAHY2Vhpm+oBtLFiI4PpVOiGBFAqcXBswc4Oz9sA3zMLi04FSlJqkZQ61F8t1+mqADAJjOeAk6y5IllU6oI7rq0HeC8AFOCIFuldtJkZJBuJnppZtGmkegaJrgBMqdptLZXu01zLjY1FGw/A4clF6wW0c8NzTj1W0j411lZYS0OF1cHAaqStgnu+QEKypA6jQC2Hv5JkgaqYFpFMqeNR8jEyPm8T077N8ltSLmnc2VrppNMFX05iK/vOxgBQAPSPztvJwTknbQgGoKWsranSGusCKQukJgBsZXmQG5vASfFPlWOa9nWU9vbS6IIDUyC3A2R3W5Vtbq507WhuDGt2Z/0B7Kdte71/zgEoaWuFOW1NVUgbFiNMVPslRq4XCUxXeahVY0jlANphZHLBtZkyeK7qqEIy180OXD8AR7AkX70wa+dH5h2DNm+qsPbmKktjEapLup6g5ass6oIoX5Pk/cLQvA1R+VTJujZV2tVb0lZLe7zGtPYAqt924uKsvYbUyYBoQ+K2tlVaNQbJRgUuDooMJtEwVvE51P4Eho+6Ige2pgGzKni4Nv/XFsCL1Njn+2ZsZGLRmmjbtrZXWXN9xbqryeXyWkAuYPQMoEXODy3QNVm0rbSL126rdoAuN94y3lsbACVpr/XPurZOBspmLLktqJ0Kmo5FnhWisPlbc+VUKFORZ0EbaTaFtdqLZhmmcjagTa7blrYtgLnKtPoAyq31XO803YIF5+3ootFvakwVBU4Fx3K3Bv6p94UR6Nxj+RjiANY/EBfoIfDx8PGeXL5w8feK/ZY0qnJKpV64pHbdbE9H2vZvTrv+ZLH3l/l89QAUYy6MLNiLqMxxTPFNtHVd7Wmroq2QJ6QYiQEddKKpzI6Iwvr5lzVueC7viQTYeVqI0/k/gY5Ql8PFEqpQxJB8NNVwPaUP93RXXpi8yOulEkheoOGxeaRxzvllO7FUpVIbcT4EKZcQSelBVgdAMVkelGNnZ2CqoS4rbAv9JvEuC0CRTKpGd4KeDDvBrcJfxEMyQafaB6w5IppF/86hn8PqEH4XiTr7WHGKBGIlmUuDYBXObXozLq/u4TL+Kb5pDJvTWNnjWKxSqTfsqLG2hhUHceUBFEBnMLGfBzzRVnku+JQCXAhAyNg2Co6t42gGFXp2at5G5+iDEZkkTxSGDX4t/7/SVlyqZFX0F6r5VLrP8uKUVMtF14O1PYzxVo1f9sadNSaJXKk8k7OVBTAE72jPtPNb7uistPaWKjesU4gNYp7aO6k0GTwzDm21fYvWXJUyjUCcn563SR7G27BC8S73matI/JM6rBGYSOVyRidUGWSk9SKJ8usqjkM7q50HZ4VAXDkAVeheJO8I4Kn27eyssjasMI3JFaNaamcTCNLkoQ49Oz/FyMPMPOoXwIjLeWOIZIUKXSw7S54r9xXkoRbPdg1ASj1mdfaSkMk/BKLa6rMDc3aRZsWBuKvGNq+MJDoAV6RS92MmHuudgcme7WhH8oqAFzAG1xlGTRufADwZJb4Nzc4jdYGSXMjo3vUAT5AoXVWgccafhqhUMwxlBSZPMmDxu8q+jKPtWN/t+HY1dHXkzLQNolZXiq4YQI0gHO2ZcdLmwMMbIYswH+lJDTW5g6HweulOSPd8quvZyXmbou1QRRetF3BB6pf/h0COzs3b8OxcSd2g8G0HIhEIRFnjGio7SmUfnsrPo/DdUr6vCMA5MiPvyiRM72jBn0kHvVA3QYxoBLR2xvOqUhlzn5uqjz3jqBnaOqmdsknvhO8pAn1ov7KfMNIwXBi27IRoo9EOQ4Co71JJIKYwb9UPbqBLMY6V+uLZaazoUmPIH84VZTkj8qo/sjZP0OdpwUTu3lpdlPlN9AuaAVDvKmEppKHZBevHwlQlCPmcP7uRJyEI6Cjfx+jxF8ybn7HKqXGrmB6z1NwsiaRsIV1jC3VNtlBda4spfJVeBdJOPHCVFjYQ/0i0pVyG+a9jcLK+CmTCvBR5WW3oDOC9Dt+mcHLsbK2yG3cU51ueaF0buGx/zzka5dN4HjRK3oXXQRVeNS1OuiUxbwE8eVZc4SkwTYr1Tc3ZJV3wu2TwCOsrRl5Izc9b7eAJq+t5zlr6XrWq869aarzfKubnzJMJSLVfrKy1hVTa5pp32Gzrdpvs2G5TW/bZTGe3zda3ZDrwyhUffZVAIV4TOENnsVKaqqpK8rhIO8lxvx0j79S5WWf4bcIfvIuu1nJpWW9OUHte7KOGQ1IL1fKw5Cm8wNtEd6CelBREQCFwdnJ8lo65pkoollKJCoAEVU0OW9NrT1rbi48A3jGrmBgKIk6RiKwGEgmywwg+RlHV9JzVXDjj7Po2gPVrG2xmU4eN773Nhq69wya7Dtp8ui6QyDKBlGGidrGpqjI7D6dQaQRiMzMMOpmqce7Sgr1ybsZamX+juTjLIce+clSoGKNG+BSm8XaGgrYhfYW6CwKvIQIeTZ2dmpixabwqobFSNOPKJcCkUJGbjj1qHU/9k9Wde8FJmO8RuRqYQuShOiXpkkqJO1Ljaf7EApmB8eNd19rgD30AMN+Gyq01D3VcqjQqWfFE3Q2BWCXDLKg9epSfCHMSIRhigHgHVvuh3TXl9nOdCi0bQHUZnjoxbfV1nl21PdDfSfnVvWbUpvp4IkneKPw6PT7jLLGSwePdRYYumvtesi2P/JU1vv6kA9OvSLt4S/qnLAhEjKQcE1Jt4bzaS7Oxq26xcz/6Sza++0YHcmKbkCdBlVfapCVd5SQxqTmJvqomZ4qJVK/1zto8lflm+ofbMALLoPL7garAGkn3Pd8NxKbIcT7w6nkmi1Mk8JgjZKdQm7OokJLB40UPTnR+/19sz2d/A/C+a35ljZUFnjKgTPpkoLo6yIzuhUQaflU18eJ0fvWwXfW3v2mbv/0P5mmwT1wukVRSjHLUKU6IEqxL8VIz7Dqx3mVUHccYXI5VWnoOyWDvyJwNIvLysjTWYSAkNHziFU2iM1pUKIGHc8WBN0euda8U8lGLFbNT1vX1P7Od//p/3LWPQbJskkvEmwes/JLrS33O0TQ8cJ/t/OofWeX0uCkfpZLKJufDCP1Fp62LvKgsddJvVtdiCCaduYSKKpNKBlB9vpP980xF95yTOknylLaKuwnXitSJSLXy9Ngs2qtc8CZt17/+ibX/4AtIHBKSZSQRKnH30b9SiQwtYp1Wk0PNTcxHpOPT5Wh76gHb9Y+/jwE0Fkk730uX76vYcgOOYiGr8hYi5V6TkTswaBT0FFKoMdRyqGQANUQ0PL3gEqsGoCQdr6SlNmVQuWxQgp6JedTnZe9K0cyhX1OzM7b7gT+2lqP/hsTUXVZ7SlR9uYYGEmpE1GsApZwCw6a5ad4jjoKEWq2us+aXvmu7vvyHVsE7vmb6lkgCQ0Nd4/Rxi5EMwBY8NJo4rLFT+ZTLoZJyJbXQQ8SaWCufXj7ViSawRgwXsVS1bxC1MIj1V3qbx4s0CDu/+SnAe9Ck0rIkndTYZP7+68wO3GB2kM+B69HV7bzDs5KJsCk+moufVAsj8TgQn3vUtj/4l6gSCiRkyqApGkMBVOw1NbUdqFLxTHwupQ0Ns1ESgFqXMMQE1w7aPjf1L3w79t1El0GZ1UftXh/9r3JIqrL9yNet7fDnkbwIeKoS6uN17TGvCclTAmJ+LRK4qxswME6KgHE5H7ysbkIFUlhMxykZ+ocdT37eOp55wKnyy/EUv1JFlv+0WPVydZO+oKRwDMb1MjO9VCoKoDJxlsZVbZom3so7HyfdaSBAqDqV4b6JOTeWJ16XQj7tUu3gadv66F/BWMCKMldp1teb1fGRdRiSSl4DeHJnlUO855f6jvKB82Drw39pNYO9gFheWnLsaxFNMZKbbRMCosrZx0y3BDYnRlEUwEkWfmgG9SbGsNJ52j6pSI0sCCx9htDlw9jEZanORc+2feszVjV6HiZRkCiphqhE+do7eV/KJM+n7+csUkVemHyktWroIpXrMwQsLy3FPolOLJaKZhpommUtJvzQ+KKN4TMthYrmpp/RZFmgrZpCTv8vTrpTC1LhmB4uZeecLprjSETq1zWffNqajj0cGC2RZ+5SNWEK42NmCv6pimRI1+OT3A+mcIS3S/sm53o/t0gJrzNyUlVjLc8+aA2nj9JnLGYEXY5CuZUNMVvEClf9VLPcRPdM4eVrLoUKAqhIz+E+qcYwqUc/S2PFSRnMSh8/hrG8JrDAohow/s7S30gubq2Op77IiELgX136XL+IeJFnZ04C2ETwWJkZH6fVfw27nTaj9ASz70uyAm92cKvgf+JP4fPs/N795EWlLp1URyZR/QnsWxKJ+N2aGa0fwOZI4veSF/gR01VLH2vN3BAS2KGJuNTWuM9TGavnvqxPkTTcRTzV5RRP5nntwBlrOvksqhOjJB9JTY5eMnsF0BpbqNbU0PFREqVNLMNjko1e76lPL+DFuRJIUtj80uPk96RNde7ELxBpjwu8L36oLZQUampGvtSUDXXR6jEmhpgkPIoabUFwClHBp0OMtiuLjehmlEhiPDUZd5lQG8Onp8lH5QCoMbrW579l3sxYcSlSZ54Osl3qNxthBMJ5VwoWITHP7qbLpGQiuVyJL0oKJ0et9dmvM7aY36OT+C43nRQWqSyykRqYjidh0eLWYlSw9OdZt0fPwM31T0pXlqmkL2ABjS8d/Xx2RnJGGJmfm7H6EzioS5UiSYyAdOHLqSoJOVChysDPxYAmaDrxLPmmTS6rqtK5hznU8aJvNSAwKuYATpBi2csBMHxhHsNlHBVaxwrZSqQsDqDCyXgRiGKjnNSjqBQlXCpJfVaNXrD6i2dwV5VuGJQaf8FwFMilWU6GiVCO79pzx61yWNZyGYXNZEZqtBCJz9pBQxswXMIa1TK2EJOk97IAKpB2frjAcJFWEmmCrnaAqJeI5SlkTdglohzjzNiStVpOkXw65zUXTllqYoA0wsiSsrmR7uGsmBm3uvMncBoVNCESMz2D2i8EiACUvVGPz1bTbp47O2t9YDHKLO8k7LM50LrwHzDlTf0+6WFFpJ6dGtQc8SNrQl5T0gPy8MAHNSW8k3lQ5Iv4+1/PVJBCxSoSzXIfq5Blk95h1vj5kzZ4w120yaVHIN6oiVE3QQPA+Uideq1SHplkOQGGzLPM+quhJ7CTZQpXb8FxEaGsBJ4ZYi4/gdW0KBFlU84KTZfQdZT0G2PKfXQtC2tCcybz5yn6evZaUwlrhvr4nc1G9tmqX2iEX92WsvyomVxR3sqhs3k1U6G8y5MlfhVilQxGAabl3WDpPpoEdWKQuaka3olQlnMz6kplonWRE07uRw13JJFqkF7WUznd1TiXS54s1vGLQSTu5TASYtZl+LPciEsKLzZRwCW1LpOo7qnbEn5n47ucodTcJP3Xy7+zQUq4mKdPWPBNHkpwoqzXtfqFsk2ilFWhS28HQdIYGaE6jb6kaw3aOuJbs7NkYUUTzDwt+OV5ADinjjmR+Ij7gj78dNfoJjmdtfuB0iKsVfLbXReMtsSHqq5KTKTSA5i6Bhp1UPpKSLsBqbOvuTOqrbothwLAatabZguUS8q+vGR4dfOSYtXcGmlDtYOFKAtgUqC0RhfIrPx0cZLrLCS0p+Nr+Lv4N8UQExj38wTaLB34ebIifirDPgxzMYpjIoUnQYFZRYDwEzxc3n+VKeyIpzLps4TNjUCrk+/6mETt46aTgeV0Gb+rYD3vpqSyFvSMvCXwp1CmxE0Jr6JMIkUnzSfrfx6bREnkowgMuUHUB0wixaeFJyJpc02HL5CGC3f5HxWCnKcnR2z7v/2N1b162vxJgQgwyjkztp3Yh42sVIBEW+lptHqKTE0A9pQkI08GLyeW/8qt8UbifIanZhQf0sZ8FgecopVjUiKg9JUnASrAp2aoX9VW/8or1vn4PzNTTtJZXj6kvJOEIppZgVvKqihymUxqbCtCL0ssiHgZ1gplZEpyzr3iRCByVjN43rq+8ufWdOTb9KtgoqSrjlH21g6z3QfMdnTTCDAeqDjlqO49wXyDV+nZnoOBqFy1A5O8MwuI9TCwkvTLpUXSnQKcGTrkqjgqUA1ptneyKrXbvC1djAXWoOIBbBDPz7mTjFDzPTbiwNR8mR1f/jOrHR+2sz/60zZfTdhSnJfkU8nJEpUVr+tkYngOCdLmfmJDPsoLoF5Q5UsiRRhGqgyU2pZL8moH+mzX5/7I6o/j1U9jElfCyGvfZN6PvMfs6hvMb2hKShJjB7/ny/hLH/+62UvPIA0AJ4mcBMS6ckDknRRAjVIBpgFPBaFzbtffat7t95CHG10eZCGLQv5K3dvp18x/6ptmfPzRYeJhJdY3/s5NuDrzY79kC6qM+RFx8bk4Q56FkWefRC5IPrA/CBRKS+RxeFkQQIlxEul2+EjWp+p/+DspvO75qJn05Jh1feFPrf6155hzQrvThFP6XT9t3t3vC8B0AZNL5YB98x3mXX+b+d/8itmDn0ca8IdK9RogNmBcSNUVJD0HLKngGcIr5+3bzX7sZ8x727sYJsqwQyDEgHCVbd915vFZVD7u/wyOdcqRqrZNj37RZll/cfaenw2YHXs3J0vFmBW+UEK48pQ3EYsFeil8UaqgKKkGEWz7Q39vjS8/HYAl8H7hY2bv/FDwO4FpS+LNPPeZ2+m966eCd1tRdwJBVpTa0YJZod3BXefPIiXMDHcW5g6maPzKH5h313sC8ArlIUyfNLz9N5r3a//b7M0/4tIXiO0PftZan6NJcIPRxTkfH9lZUlZ+KAbZbMUoxKFYuOTnDhclVZBzbmZ144lj1kKj7wZD1V783G+a3fSWIF4xJ0ayfvXJIcIqtHfoLeZ9mDhqmLWmO7OUdp5PwitBHLJ6SVdz+53kbTXvF3/b/L0HETbeLzkPQVifCuj9wm8xueoQDRpTTujybP/apy09MgCIeTMRZMXlIChH9kbCRfFYLgtSwusrdQvGYZZvfvRLDIgyoq45LXf9hPmoIce0BMaNjo5af3+/Xbx40aampnKBFIj6HLrd7N4PBO2h4pnJJ4U881CdGATBKCl5+sB/NX8PBlNC+ip5NA+Tk3Ta45VJ6dc3mvehX2O8rdn5Rav6zlj7k7TRzjFfCvuvnMcF28Ci0cMX1X7Y4b6Twi+iBxp6X7fG488E6qWDmi+1mRSYe6dOn7G/+OQn7dkjDNnQJv34u99tP/WhD1lra2viG969HzT/8DfZmKYHKaQ48ygV9ROjCYj5c7STzLrW5F676YfNv+XuRPAEVE9vr933p/fZ0WOsfMIQuPcd77APf/jD1tnR4SpONiMCf/fVtvi2H7fU1z6HRV1pbT94xAbe9j6bra2n4kYzkX2r5ItS3i4IYJL3O576ZYd2/EnmN2N3jSeesxTmtwwZu+3tmbmcS7Mnxg0MXrJf/uX/Zg8//HA2sgcffNBefuklu++++7DKGFiOSoykoKHZ7PZ3mn3hk6hTijOTATAbgy645/qZGWDvei8NDGGjcRFKeZDk/Y/f+A27/ysYShn6xje+Yc8//4L95af+gteWskylqLjz3eY/+lXSmLP0+VNW2/uKzez/IQCUoZRMqlOFSPFq7LoYUbL8JIdEnJSuboePCkagl8lJ06kX4CHqjSkJ3nU/tEQ4FCSkRx5+yIGXxlCprqlxn0qu/+6zn7WTp06FwXK+/WveZL76cAJkAUmLz1nRb9f0AWDHNvP2HMyJI7zx1OHDdv/999uSPKTTdv+Xv2Qvv/xyrirViywatZ37SRvA6As2aZ5Okc59JX3fIhguraxhBmPfefkvT8tCCSKo9loeA9WYJPLwJ6b6Tql6IyG0Q9u7k4K5e72oLoEQbW8qYMT4xIT1nD6d9z1vcxcLMrBIsy6waLHImWaR6ZkYvI2wTZvyxnWmB1UMLckDkj8yMmKv4H3JIVUaSWXXbuLnmnJW952kTaS8V0JEJXMhmo+k6KIlzXk+HfN8hwGk2sNH2my8RusGuJdD1LLKWTb+wZvhCCl0kpITMLixa/fuQEWJKZmPT41ubmqyrdu25XmLQvLczdiWJ4Q/1y+MZmgeZip/WseF4eGYq/gTqGvnLqtiyXSYvr6VhybS6OoC/ARyMXXsROoEGhbByKClNOnqiogJwTgqFGMhKgig8rCkzcnE5HiRYYA88uGM7HhCFD14X159UYGlXXp85x132K233orhEMzcUjrVeGs++MEP2t69exUkl1w+KGa0bXK7GOQGddxgfWEhuvlNh+wO8qH21qlBJCkNoG+/5147dOhQIj9cfKzbCAAk1xq9KEACpZDW0qsSEI3wFKOlLXIstAYeFUdSLZAXi1bHPazVnJnYu+6RbqK+sgsykUY3RJQQVhWlvb3d/vozn7GPf/zjdpi2qJZ2UBbgr/3qrzqpSKpMUlmSkqWrI2O5qeS3CqFws5MJqQe3FL+s3U996lPOaHryySfxB1fanXfeab/+67/OzPR0fgA16dglS0JFJv5KUAtJjoo0D4MXQLGYJs4PoCIhAkUU7GW9tNwa0wqpFonR8FKoVsP7KtECvs6FOjz+Kh3tkDfGers2B/3lYJkrMfDA/v32SboRY1iDFajm+nqc3FAieJn3bIK5orjpnASQbzzQ+pd5yrdUiZu/wvU0znABmYeUjqT9E5/4hMuDQkp9igrm4WIf5YMpoLPY3I7FrY3tkiVR3S63bZeLNfefcj4te4g2MFuM3GDuTrYiuDkakXIpEjWi+fSwwFJw8UK78Wl3v8jr2eTUdZjpupqAFE7O457Xs8+SLsQkpS2mCTz9Lsg4RYLR4EYK1IF27XGkdrlE+O2Gp6iv588HjvECVTtMr5E8KB/F8uCWY5894VISQ2a37nHNbXAj93/RYSLVM61qijFUfHHNbCTKLIDNbFpweWJY0DXXkNI08yXilpADl9jVtdK1OruNiCDBc4n2aHTv9cH9WdbXv/B00ZHskGEhI3Mjjdwh0cVnnkACkSyRpgpkSxXcCjLJteaIXDhl/smXMw/yf5WcByqCz/DY4gniVBsvi3XnPgaq45UoSEssqqaSiW95CZ5NO7uP0Bmeirc6T0PTDaOULap2XO9mw5kO9jDZ1comrSz7VdhxqfYEZCTd2ng1IFbWUMOzkUVTwPMx1X2dzbdhRco7+/SjwbheAQmIvl7wmjg8jdF97yG4QhdFcVZKbcWZR25dO0gOVa0f+xc1MgWjLvmhNMvT37LU8CUYxdSS7XttaucBAEyOX5quigofci4pHQ0QTDLFU4Ij0LTPqI4AOsDxBnHpzfJcx8tcy7Yht3TXuO+b2AKqnRVJE8y21nE0SaRdO0TCsR4Aa/nEQ6bQw5OtW23khrcGrqWL58zXUFDYtQiiWN5/ttPy//2fzCNO5yjQ+nfNm4lbofqdJrMaoNbY37NPmHfs6eWlGX1LFehcr9lDXyJe1rkjdYM33snQUnOilhFv1PaFsxmiUYXXqoM6y0nH6Wmr5pvZY/TNbEGivUbbEa44ZQGMP1BEOtRCZwfpXL647uUx20wFU8X1rmpGQz41Smvcf8f7bV6dbZn733qAQdFvBcaFXl4GeTJMnnsyYJ4GhjWqXyPw4tIXRo5E6LnC4aPyP//n5p3vCR8u69tjXzb/y59mRc95J/1zW3baxdvfxaKXTL83IVZpePEuH4nv46zSlY2xpZkzo9RHK0AFn0p81faPsbVIUqpKBAHNPPLZ+zP5uDZ1aic7d9n5t3+QwGIgJtY/fiKQAo10l0t0RxafO2z22fsCU02lZiJsoD7zRCY1kQZcd+Ijxg7TNPz/93/N0zQNZ+7leS/f7Qms6a/8rdnhh4mT7gWz1/ru/VmbaepA0yRXItmltepfFqBF3H46W0PNl1RnMSKYVKBKl0vazOD7Z7S35YLt76rOMX31kvR5J3P5w5pwhgUZA2xs4CKORCnvh5ruXV/7G2v5zlfNm8T013DMPR8wXw5uzYfBg59sCRGRQNJ8GFYmed950BYfup/eAhVBEl3Ds1q1OdLp8ZQjmdDlIuHHCSPvjCpPN+OBjI54B24MXGyF+nACenzEvN5TqO4vooq/Q3IsOyffF975c3buzg+iRpWHXBKv1MRoO65EZvNcPBxjH9HjbEXZykLPW2nO8s3LJWgPbeROV9p8ABLIzrAj4RG2g9q3PW1NLMSPm7YK04rqZEGN453WSLw+pqN1yGaMl+pSVML0Hf/+OWt54gHWRIwAGO8dvMm8W++BmfsZY6PPVcsgrWqqnokhTDzyJpgTc/wF879HjX/tWNDmKQzWs6UBj018chLkTiJp7qemVQhEtIFfw9DPLXcySPxW87d2BRXJqWWeq25rWIAK59ral35AHh5BbSK5gD2PB2bwre+3c/f8DD502sRkWXCsaKpmY0AqvIqVRGofe9gJq59zNq7ZWmVXdWLV5qfSAFRj+p3jU3hFKmw3kcbzp8woU9rEVTVIvyWF2l6E4ueQNgmooI+z7fEvWstj/2zpsWF2wZIkodY6t9nitm6r2LHL7dOixDykzr9AJ7nvBDPDegEUsJy5TmryBwi8UiQvnpNFwNeEKDfMRK4lzVo4un03Du9uDnZCI9AZV5vqjTIUdvZ11O4pNgC46O57SNJMU7v13/2TNnj7+90Mx3yq0/GIrkNzmkqTh8QrGYuvsQ5CNtcP7611RxbkCa7bpQGokEfZoLSXnSqu7qqxGlphZShOWSnkwSSN4+ujwb5o0nxx0uw0tYWtzzxqnY99yer6YI5yrZqu2dhSVaElqQgUhzqp6oZI6qrIgdqzCoGXlJt4inl++zBU44ezJCCNodEXlzbXqqlKV9GHeRCg+jCYNrH3Rjt/94ds5OCt7p18khek7FlLNVu0FJA+DQoMag9WJLCLLsNNHFOQxLsgPvffAZi/SkRCbmf7ix6OlLnEgs9tbFYa72apjOPUHq0XVKJ1mOttDK5eYLKsa17FiAi5kWqmyg/eci9AVNnuL/0BrifawwWyow6wVJwjvp3OBlCBTtKuP5eSutTnCklqV+2nVvHM6UN8yoOQU6FEXDrSb20QpE/FrPW871dscuc1bnb55cCZsJEvvSZ+FOr7KQn5PQc47UYD5F2Zg1Ii0eS9LAnAFpb86uSRSyz51Y70Ors2LJ9iVgZmYPQ4jGcjJ1eedvpk2uxgVJ4cBYqT1CN9xAU26/F8jBPpX0kXqtT1BEjAk4S4kQz9EGAAuSTleKTL+U3cFcRdQdxprjXVXwPAqkjSAm6Ug+fumjAVGmNBaDWrzjkD9Cs/CZA6F0f+MCr7CO3eJMaijnrVAcylUkkAylW2m/2df8BenwJxKzUkyXDVnmg69USObVnrW2g3deq0Vu9KMpNo0fnvMg+1JSTTElz10C3xJvtingiSIl3WPRIT31KqJBly6QNkvNLgc0XXhKEKfsvylPLIR3okO+0i2k1qdBfH8lVky5zvrcv3S4ZaR412cPLYRR1QrHWEsUzppxw2o/xT86FPI6ppE6pUfMhHi5pC72ZxZUIp8+oripvuWzHHEssX2Urfd8nGck8b7ddgKWvDWRWyAGl1V43a7UJEMbWMepIFttJyHdreuAwqGUA5+fdyApmY2c+SX9c0xRJSeTWKzxYnGfKD7kX4M+cbsLXPmStkYWbkvLpeNwDNbcLnJvDmz7M8U41yrxXIp57N4uWS8aLNc3W4cjG849GVDKBebMMXtwMLSUesjeEtSJJ0FWkUVaodeuWlkVTGpTWbCZ4t0j6wjCZHS2XDbLQLNQd4XXynHZIzJyd0HUjIm1KQeD5A26dl1Ftxm3U6A6LgGzkPywJQb3ezS30tjVzfAHs9Y7XFI1CeJZ3DtH0D1K5pDAKdCCZgk4k3CjAj+Z3wbv5YwxAr/y2tgSZy3Ync2NU2NgCe5gkVyp0qv4TgIrsga6+d3Uhf3oqem0z2Tpz/2Qf5LnQe3h5A1PrGC4i+xgwFWhLJ0NEzHY5RlSSuKqJGB9QOxvsmSRFG7ylije/ldV5HAydch6ZuwqNCt2RgzbCSV4ZqUrl1mnUty8IKgkcCc8x0uDA0RzMadBtanSurUMrJz8oGUNFIjcpTrnPVtbtFYkky6akg6sA24IVw6+Ey94OvTG3WrrxFDIIlr+mHlj7vu4VOFgZF2PnOCZR0gxzJWVDDVI22rqQARe4pz1L7ucaGjJZa2sZCRRHosmt1VOsou1C0YRh2c3zDcmlZAFai3PfRoa/DfXaOfZ4n3OBj/izEQcyG1ANU0aLUka7LIe1//aM/b3b3f8EFtwtAFYesp3wRcV9AS+k3b8ZX9ZPmvfU/Y8Or914GKRqBJH0XSUqj7DJairZ7JKVDIQexIzQZ7GrO3ajJtxS6hGwtC0DF28QOTlcDorxPfZxUKWsqSaWEeVBZ5Y1o1JBTRJ2qvzxHX7DQu2EcS77xp9rogNldP2v2gY+xSPRt9Fvkv1RtJjWpyPCj37qPr9Pfd7PZe1nV9K7/zlLp/LPklqQV+7GoNpt2PSSB15ABL4Jp+Dj7rWLLYDnPoSkydLo5JFOG4ZXQ8mWXVLdxQucYR3C/jhSeR5/voJuhchUqhAyaBvypEzonkDjcegnHjEJvJRQRaVpkDYLddLfZVazw3X612YvfNXvhcU5MPgWnGL2QxAk4Ld9m4q23H7/lNYw4MGvMVZhXniQDZVYdKoUWsajdECDVSH59xuIsVAKlMovjvI+d/7UUX0aLnCNXSlcEoAqwp6OS/QF8O0vfsBKX1Bbm1cS0S04e1SamGFrRwYqadjjvZkIjMeUQm8+OsEx76MQJ271rpxu98G6+x+w6JPHCafPZSUnzUrS3WYqtIX3UrGaFq33yAOHiuXPWyGQkHbNaFhHBIjtVaBZeLapfp3sKnGLgOU01uOD2n+vEftgL39QUXSldEYBKPI2raP9mWaVszQyIypPOEdR3vkLpvp6rzZjie1Gd+TLJY6HM8aPftz87/Lv2O7//B3bgAGOJmiKgoSYtNOETpu+qhkbJpa9J77UTJ+3zn/lr+7mxC9ZdW9joSMpWJf7bRpzgaRaUytIO00kKS3Jufq3OmB9m8/hN9Z5dsyXoiiWFL/demdUvOfo6+oUHGSuU0/s8w05DbNqtmVXKfCESiLUMs1RoRhnhy6UOLNuvf/V++53f+z176unv29j4WJCmgIp9lJcJFmo++8yz9rGP/bb93ac+bk1ykJerQpG8ipYtbn5Ukj84Wgalqenx6i4MjrB5K+AF58pfWbsXTeOKJTCMrBmj5tptaXco5NkBAYgkoirkCM8HjRiQov3wGvDslwsgkW7DP3vD1hb7l698ld2YT9pHPvIRe8vtP2ytm1qsgYNBxMB5xhjHmA0+wQqnI0eO2F99+tP21OGn7H37twR+Whk65ZD6gB27XZkUfz4KwTvP/maXhlkcw8wBgbeJqRIrSSsGoDKlzF3H1MQXOFbtPOpUQtCJOtXEqHwgin0LTZj1ReVVKVwmxZdmaOdnDnbYk2dH7Mix5+1/fvSjdt2119pVe/favn1MrqWRHmdf7VdefdUt2T5+/Di/J9h/pco+dLCNHgzqDyEsnUiVwnhNncHoVp4XZRuoSbkAeNqyerXAU/IrCqAiFIjXM39GIKqjP0/rvRnDRtt2JRI8WWzessQsTwyXdBPj6X17W+wfXm6xxwFR3RMtiz569CjeuSA9p+Yk3TyrBLgKPm/e2mh372ik5qgalEEKTrSLtbybQJI6BZlkLX4f4E3wrcMdr0EzSUOtBuXh6pUlpcxeR6a3MC1uGH/f2YvzTBVX0XLbRZ1kMFdD/yzhSINiuVCMHRgTv/uWLtvdyFGrtDdVGDFaXas1fvpoRZF+p7mvJLbUVdtv3dplnUyZLFdrKz/qA87K9Rd7WeDJBzxKec/QL9bZgJtpQlSZVws85WdVAFTE6uirTdT5sALvTP+sjY7n7hktpvraKkRoLIN8uPb27XX2vwCxu1kHUqIWueesQ8UNo/VbCWyrS9tHb9lhP7Gb6Yvu3jISRNVr9llI4ZXOmO9nrLQX8OQQktP/esrfkN3WOHxjZb9XXIVGs6e9vg6ww2xdepYjW+et5+KstU0zyKtpGaSsKeZi7TRLvySBITOicZRyrakZv3igiYnFO+3Pj/Tb8UsTNsiUQZ+OvEdHnmUftqep1j5ywxb78D58pzTOy6wvThX7Hl0VV/OC4TKpzH4szQnmdGo6/O72SttBouoPrzatKoDKPP1c68ZD00RN1JHlg/SFxlj81tHMwYcIHkYoUkNJyzXnI5wRGJoo9d49zXZDR5093jtu3+2fYjrpDAMdNXZLR73dtb3e9qLS1O4tG7xMmqp2Ml6ncYsNY6QMUSZJujroVyF5K21pRoqac7nqAIYpyuen2qmjy88yiHkWadRpMM0tzFbWasYrrK0OFEDsbmCV1cFN9vMHW52fNljNE3QVXEc/zNByvzGOlN2BmQW6B7NuYbCG2LaiVbpwjWmr5LWkNQNQhdIKqH2b0/hQcWVRc7VDfh9SOTeSsl1XimCGa4HVqR/BgE+53bxMNIlfHiMg483X2KsDKSZ1z7lTVTYD3GaMtXrN5FoHWlMAw/JpJ3yN6stzM8iS9fkhubOW3waG8ca/r1RVxuOT3pytbcVbV2VdANfJWJ6Oxim0XDonjhW+sS4Aqgxq4FvoM2Jb2PRg4ck/K1zm5UeHQVQ/ctoONE4w874tZ7Xs8iNe/pvrI/eR/ArIumHWG6yQCo1EveKXOuijevi0bR58eUOApwKuO4BaMuZ//9vgt/5ZKYq462NiyR5+DO+DRjPXn9aXa6zP87/7EFsoH6EqaUhpxVutleUw2sLz0PlHnzY7wuBxzBuzsomVFtu6tYE2cAEmPGH2MLsCanpEjUany/Isl1bCFQ0Fglphw/7d/r9+zvXljY32LM8+3yuadJ7IlCNZgKtf9fGK+Kyz83SIY99pNjA/Yv6xp5gcORzMMKtltWwFJunq5yQPK0q5TeYW8eSM8a2N87bS+WGzdNt7DU7WHcEKXy1QLbaYpZSkiocpfX1g8bjyhAA0u3CWFZ/HWQAwYIsDbLLDxy70slQaw0WdNDcjjXpUB0Mq3wAAzuNH5Vg4Z3RpVYpmALQzmqJtLLWHt5aKc23dB9yCVXRuHuZc8e3S1wcuOykK6A8C1Osvsp70BEuU+wKJk8Wp4R6tTHLDPvx2p7UsO6W1eVEVsgOwtKGCLGc3lRFpVLlYu+9r39AOxja1ULWdnYnbuXZrKFYve6vbBtJv8rZygIbWvO+/KQCPrRhtegpVJOkDRO2Fpkp69HEYcTSQyHh5peFXrybHU8vzW+oTAA/dgZTtYeZbDwN/aAzlXevppTolgdoMvZH9SNlHey0s69UFUDW0jdFrPo4EhHaG0EfqU10H7bQL+XJFfU3WKO9ESQxq34UKRhVLZa1nf5HZ4N6+Q8wIZ26pNirS3m8iARhuihDcWbP/qwtgvBiSIh34oU+c9lxLGwiIzooRaiFxby9T6J9FZTkAw/ur9U0lcxTNAzfU7CnfTGhypDUd+qwziWMbgrxaqVKYFvIvzJXGCVs041rP4g/DQCv4LQ3gtqaMp8VvRvjNbZ25guldYVQbBkBXuxPbORin5VxxfoYFz3c/fF7OtypIdT3tGBUmabcldvt1h3WVE+cqh90wALqVuvH2Lyy8ayelw+KEVKqdXQ5JHcclWkaKdovaelXuM7XZagO1n80Gog0DYLB5j9qUiEjpUma4+lqR245/YjZrHKwZAylJWgoxmfBeRxeGB21aHEStPNq8m/sJFUbrLBK1RKHEVvfZhgFQy5YtZ52gaj1MZhp9DjkAAa8BEJOYnfNCeAOpZWDW3vROwE9QlUi010pHPA6sapAzWjYMy1yBNk5u6FK4zQPijINpbklz/L4kUgx1joAQnFK+eRHw/a799N3oq7k1heF7PKO99VpauaEEADtLzIOpzvRZs/fW/2LjAAgQnltqHWEKPPR1TICzCiP3dalZYY1In2s3xexyCGD0npaJRV9VJZEWqKcjrvijxHwbT4BvMNpQAFoa5kXXyks6NAtaU9uWcJqfktiWrbn3uVOUBJSMEaeaI22dMNPSa40uxCsGUuvWcBSNfG0DbBwAAcTTBN+oQQKjPW0F6XZzijGG8Cl2C1zuBF1fBkmOcQSYVXiG0liiS9pjqVKmDuaZUh/L2Zr+3EAAwqRqSWBEdWGcePJ+qAMdb5PUsVfnPyqxZbDOrZ0QSEvS46esXrnFtHlCNG5ZrvLpbjDaOACKMZII2posSdWp1uuj6yizJZVi9LIJaauXsRJlAWloLE8LTrWdVlQbKJ104LdddpKr8GI096sQfZlRql8WBUltoLz6Uq1LOvkwWhJ4JaSmr7EtIQZYIimUtMW6J+4g5IQ31vPWxgIwvlJX0+3Zwt/V/Dhekg4J5bIJlSg1GT/5Wh11fZasQCIh3d4Azut4cTcUgH5cAl07B4CyGDFaLgMWoOlr94l85MAtgLAe6fTPODlVzU21r6EKVVg5FGShbjDaUAA6CzBsk8RIbekob4nUZ9QHKcbK6dyJOyym5gL+6l0Gk6+7ExBQw0mk+OtbMk+CCrEkWIPUa3hf6aFS5fXZYLSxAGR3+oiYBQYFTPa1hElgZkUQr0gNp6M4z0jI5AhndWrXJqYz3PLugPH5QHZHmMfeD9taAZj18hDGxSFR3Fi0cQDk/HV76btYohHLUsaE25QHBsojE6o3jBs3bUHdi+hmsSFvBeCWbrPuGwI1GarC8Lm+FZczjgRgBBipatEmnASh41rfOkL91cP5JTp4a83/w6F1pqF+tvN/idnZDzLd8BWn+lyOtJfl9quxFGXqw2K6GNn9Llig6dxaUqsaTpJFyVeWhMHO6821kc0AcbE3+8hdCCSBIk9MmnZN0yOiYBHIw1fqy5BRPhSetPwnvsSMtEvm7X8LeTtA5QrytjTytf219gBqxtbQec5hAKyTz3AWxCkYfIZNXJgf6iQFxmqHJRiaesv7M20fHpnofBips9CAcYaPEFxKHieIifzt+wPJWfo4EDq57lRBBgBY0i4KuyftzDA79A6zb38hUMMCUXNaDz9g/vOP0f7uNtvczXQP5sd0cVpZS2bej4tk7f6tGYA+s5nt1e+Zd4KTT3RY4vB5ZnVxT7VfwLn2BvDk92zg/CGBd+NdASd05M4kAIdSgsrzm1oDE4N9W5YQ4PpyhbVud88FJJtjEYS4o6pSlUAS3IJh0n8qABCQ/NHBIF6eaTdE9+6LT7BvyCSvo2qVX00pHAPM08+bPf8tJm5tM3/XtZxAc5e5irPcQWZyWC6tGYCe2qt2rEZA8LYiHTpzVoyVZAm80N+pKXntO5hfuTNwZ4lpP/g3VNcQ4TJ6krBe596grFlQM0WX07mDOZnhdHcNzsqDIsDiYfV7M/G8/FTwssYCT6AVXmd23N6byAOV4B2/bPbmHwewwUCdSqWKlC99NGqheNTFkJRq0UsF6a0RrRmAbvR7G8wSQ8XMkAFZxkpCIEmFXGpOYp82/5XDZs8AIHxyjNLRbkyatX1vcsFtXpZr5l3dUYVoZ0DWjWzwW0feadRisPeymlSaGfJuuIuzkL6S0QKkTUXx7/9j8675kWD64O7reZ84BJzL9+V3gyiUdggmAEaNsDCRVfxeOwBVSzU5KZ6iauw46pEuhH/xNO1hDzsNHjfvUh+nYUhVUfOlvkScQO0zVufdg1S4NgfGDV8Ian4QIgC6Y1cAtu7V0lnXhNsB4naJi+FYqVNjemoGQN7t/8n8x77o2l6nDTgKyB8k/SP/7ubHeLtvMH/LHowW5rhKmuVgR4UvqTgusrX/F2fnmuXAl6kvQ+bUUbfoxQfI1DBMGzxt3jSAqa2RNKlGayqfplxs22+pN93LLO9bAtAu0Y5ekmRR80Ny22LcGP4K1PP2g6hJJNkRoNP18J//tkn6nGa4++eZRrHDFo89xuIb4tRqKZ0Yo4rT8yJg9pqvbkXzdtM5FynS8LfuNe/gbYxQoDrXkdYNQLbLwVihs3zVzViYMFVqSEzTLroCTirWtY9kUSpVM9Nqm2Ainhkk2dcU/Yf+JpAkje2JtH0y7ayn/l+UtIfoY38fxOk0ARsCsTGs//gXOPbuvYE03/oeSx24LUhfwIVtndQz7ben/qYqkX5rrqobmYhUnGh6a3i9bgC6nXRlARqASKs5yly4tkY3BCwk40CGjtTt4DnzX3ua3Xm/Y3YCYyM0fgQ4XRTvNqzXBgyhCHl0JXxtkP7SE0HbKBA5BdQe+az5p18IugJXHUIKkTJ1S2QVKz6RsqT0HWXu6VrPFc86k8vBmqwPXE5B5cdE0vy+4/QXX8XcP8PStBP0I+n8T9EFCT0sGQPDv/kdlvrJj+YA6JI+hcn/xT80v4d41Bar3ycQ9C012IQ2UL9u82466ahcnUQtX+kGACkP69ZgfWCelAvensS40F7Yl87Sz+LEzt6XAyNncihjxqNeRUHVQ72hWtlO2bsGNXnbe+iT0QFPIqnjHjw+T9xPN4GuwtAFQsmy5EsfJ+V0U6Su6zBQNqEdaHM9OuluV/xtVwUd+qS41+feBgQQw8Y/8giGzbGg464OvFSdOCy1KjVKe+fTRfDcci5UHn1GT8cOyCqNqc4cvioOWa0Dfc4w0WphddydFSyjSe2v5owqDX2oHCkZUA0AiuHkXX1zTpTreGMDAiig5OVwXg+YLVqiwiR2fOTpkEGh9kqfcvteUr3qT6pN1fGvUsFS104lSxyVDOmE7aAcCBr83VjTCpcA2B3k+j/+v4E4MM8mgT3/H7IkMg6nAKmQAAAAAElFTkSuQmCC;" vertex="1" parent="1">
          <mxGeometry x="90" y="230" width="92" height="113.36" as="geometry" />
        </mxCell>
      </root>
    </mxGraphModel>
  </diagram>
</mxfile>
